<svg width="1903" height="483" viewBox="0 0 1903 483" fill="none" xmlns="http://www.w3.org/2000/svg">
<path d="M1883.56 364.427L1836.21 282.426C1825.76 264.31 1802.59 258.103 1784.48 268.562L1702.48 315.906C1684.36 326.365 1678.15 349.529 1688.61 367.644L1735.96 449.646C1746.41 467.761 1769.58 473.968 1787.69 463.509L1869.7 416.165C1887.81 405.706 1894.02 382.542 1883.56 364.427Z" fill="#00D492"/>
<path d="M1443.35 136.7L1504.64 253.406L1567.45 136.7H1662.42L1565.71 303.609L1665.03 470.518H1570.49L1504.64 355.116L1439.87 470.518H1344.25L1443.35 303.609L1347.73 136.7H1443.35Z" fill="black"/>
<path d="M1223.72 470.518V136.7H1316.3V470.518H1223.72ZM1270.22 93.669C1256.46 93.669 1244.65 89.1051 1234.8 79.9773C1225.09 70.7046 1220.24 59.6207 1220.24 46.7259C1220.24 33.9759 1225.09 23.0369 1234.8 13.9091C1244.65 4.63637 1256.46 0 1270.22 0C1283.99 0 1295.72 4.63637 1305.43 13.9091C1315.28 23.0369 1320.21 33.9759 1320.21 46.7259C1320.21 59.6207 1315.28 70.7046 1305.43 79.9773C1295.72 89.1051 1283.99 93.669 1270.22 93.669Z" fill="black"/>
<path d="M1187.89 136.7V206.246H986.857V136.7H1187.89ZM1032.5 56.723H1125.08V367.939C1125.08 376.487 1126.38 383.152 1128.99 387.933C1131.6 392.57 1135.22 395.83 1139.86 397.713C1144.64 399.597 1150.14 400.538 1156.37 400.538C1160.72 400.538 1165.07 400.176 1169.41 399.452C1173.76 398.582 1177.09 397.93 1179.41 397.496L1193.97 466.389C1189.34 467.838 1182.82 469.504 1174.41 471.388C1166.01 473.416 1155.79 474.648 1143.77 475.082C1121.46 475.952 1101.9 472.982 1085.09 466.172C1068.43 459.362 1055.46 448.786 1046.19 434.442C1036.92 420.098 1032.35 401.987 1032.5 380.109V56.723Z" fill="black"/>
<path d="M968.903 231.891L884.144 237.106C882.695 229.862 879.58 223.342 874.799 217.547C870.018 211.606 863.715 206.898 855.891 203.42C848.212 199.798 839.012 197.987 828.29 197.987C813.947 197.987 801.849 201.03 791.996 207.115C782.144 213.055 777.218 221.024 777.218 231.021C777.218 238.99 780.405 245.727 786.78 251.233C793.155 256.739 804.094 261.158 819.597 264.49L880.015 276.66C912.469 283.325 936.665 294.047 952.603 308.825C968.54 323.604 976.509 343.018 976.509 367.07C976.509 388.947 970.062 408.145 957.167 424.662C944.417 441.179 926.885 454.074 904.573 463.347C882.405 472.474 856.833 477.038 827.856 477.038C783.665 477.038 748.458 467.838 722.234 449.437C696.154 430.892 680.868 405.682 676.377 373.807L767.438 369.026C770.191 382.5 776.856 392.787 787.432 399.886C798.009 406.841 811.556 410.318 828.073 410.318C844.3 410.318 857.34 407.203 867.192 400.973C877.189 394.598 882.261 386.412 882.405 376.415C882.261 368.011 878.711 361.129 871.756 355.768C864.802 350.263 854.08 346.061 839.591 343.163L781.782 331.645C749.182 325.125 724.914 313.824 708.976 297.741C693.184 281.659 685.287 261.158 685.287 236.237C685.287 214.794 691.083 196.321 702.674 180.818C714.41 165.315 730.854 153.362 752.008 144.959C773.306 136.555 798.226 132.354 826.769 132.354C868.931 132.354 902.11 141.264 926.306 159.085C950.647 176.906 964.846 201.175 968.903 231.891Z" fill="black"/>
<path d="M502.002 477.038C467.664 477.038 438.107 470.084 413.331 456.175C388.7 442.121 369.72 422.271 356.391 396.626C343.061 370.837 336.396 340.338 336.396 305.131C336.396 270.793 343.061 240.656 356.391 214.722C369.72 188.787 388.483 168.575 412.679 154.087C437.02 139.598 465.563 132.354 498.307 132.354C520.33 132.354 540.831 135.903 559.811 143.003C578.936 149.957 595.598 160.462 609.797 174.516C624.141 188.57 635.297 206.246 643.266 227.544C651.235 248.697 655.219 273.473 655.219 301.871V327.298H373.342V269.923H568.07C568.07 256.594 565.172 244.785 559.377 234.499C553.581 224.212 545.54 216.17 535.253 210.375C525.111 204.435 513.303 201.464 499.828 201.464C485.774 201.464 473.314 204.724 462.448 211.244C451.726 217.619 443.323 226.24 437.237 237.106C431.152 247.828 428.037 259.781 427.892 272.966V327.516C427.892 344.033 430.935 358.304 437.02 370.329C443.25 382.355 452.016 391.628 463.317 398.148C474.618 404.668 488.02 407.927 503.523 407.927C513.81 407.927 523.227 406.479 531.776 403.581C540.324 400.683 547.641 396.337 553.726 390.541C559.811 384.746 564.448 377.646 567.635 369.243L653.263 374.893C648.916 395.467 640.006 413.433 626.531 428.791C613.202 444.004 595.96 455.885 574.807 464.433C553.798 472.837 529.53 477.038 502.002 477.038Z" fill="black"/>
<path d="M337.73 136.7L221.024 470.518H116.706L0 136.7H97.7983L167.126 375.545H170.604L239.714 136.7H337.73Z" fill="black"/>
</svg>
