<svg width="1874" height="466" viewBox="0 0 1874 466" fill="none" xmlns="http://www.w3.org/2000/svg">
<g clip-path="url(#clip0_3273_76)">
<path d="M1308.96 145H1427.68L1480.93 228.232L1533.56 145H1652.29L1543.35 296.776L1652.29 451H1533.56L1480.93 367.768L1427.68 451H1308.96L1417.89 296.776L1308.96 145Z" fill="white"/>
<path d="M1172.64 145H1273.01V451H1172.64V145ZM1222.83 122.356C1204.06 122.356 1188.96 117.052 1177.54 106.444C1166.11 95.428 1160.4 82.168 1160.4 66.664C1160.4 50.752 1166.11 37.492 1177.54 26.884C1188.96 15.868 1204.06 10.36 1222.83 10.36C1241.19 10.36 1256.08 15.868 1267.5 26.884C1279.33 37.492 1285.25 50.752 1285.25 66.664C1285.25 82.168 1279.33 95.428 1267.5 106.444C1256.08 117.052 1241.19 122.356 1222.83 122.356Z" fill="white"/>
<path d="M973.188 145V59.3199H1075.39V145H1133.53V234.352H1075.39V329.824C1075.39 341.248 1078.45 349.408 1084.57 354.304C1090.69 359.2 1098.24 361.852 1107.22 362.26C1116.19 362.26 1125.17 361.24 1134.14 359.2V447.328C1111.3 451.408 1090.08 452.632 1070.5 451C1050.91 449.368 1033.78 444.268 1019.09 435.7C1004.81 426.724 993.588 413.668 985.428 396.532C977.268 378.988 973.188 356.752 973.188 329.824V234.352H929.736V145H973.188Z" fill="white"/>
<path d="M742.393 349.408C744.025 355.528 746.473 360.628 749.737 364.708C753.001 368.38 757.284 371.236 762.589 373.276C767.892 375.316 774.012 376.336 780.948 376.336C791.556 376.336 799.716 374.5 805.428 370.828C811.548 367.156 814.609 362.464 814.609 356.752C814.609 351.04 812.16 346.756 807.264 343.9C802.776 340.636 796.86 337.984 789.516 335.944C782.172 333.904 774.42 332.068 766.26 330.436C756.06 328.396 744.636 325.744 731.988 322.48C719.34 319.216 707.1 314.524 695.268 308.404C683.844 301.876 674.256 293.104 666.504 282.088C659.16 271.072 655.488 256.996 655.488 239.86C655.488 221.092 660.385 204.364 670.177 189.676C679.969 174.58 694.248 162.748 713.016 154.18C732.192 145.204 755.652 140.716 783.396 140.716C817.26 140.716 844.188 147.652 864.18 161.524C884.172 175.396 898.045 194.572 905.797 219.052L818.893 238.636C817.669 233.74 815.22 230.068 811.548 227.62C808.284 224.764 804.204 222.724 799.308 221.5C794.412 220.276 789.516 219.664 784.62 219.664C775.236 219.664 768.301 221.5 763.812 225.172C759.325 228.436 757.081 232.312 757.081 236.8C757.081 240.472 758.305 243.532 760.753 245.98C763.201 248.02 766.464 249.652 770.544 250.876C775.032 252.1 780.132 253.324 785.844 254.548C791.964 255.364 798.288 256.588 804.816 258.22C817.056 261.076 829.501 264.544 842.148 268.624C855.205 272.296 867.24 277.6 878.256 284.536C889.68 291.472 898.861 300.652 905.797 312.076C912.733 323.5 916.405 338.392 916.812 356.752C916.812 375.112 911.713 391.84 901.513 406.936C891.313 421.624 876.216 433.456 856.224 442.432C836.64 451 812.16 455.284 782.784 455.284C746.88 455.284 717.096 448.144 693.432 433.864C670.176 419.176 655.692 397.552 649.98 368.992L742.393 349.408Z" fill="white"/>
<path d="M484.348 455.284C452.524 455.284 424.78 448.756 401.116 435.7C377.86 422.236 359.704 403.468 346.648 379.396C334 355.324 327.676 327.172 327.676 294.94C327.676 264.748 334 238.024 346.648 214.768C359.704 191.512 377.656 173.356 400.504 160.3C423.352 147.244 449.668 140.716 479.452 140.716C510.46 140.716 537.388 147.04 560.236 159.688C583.084 171.928 600.832 189.472 613.48 212.32C626.128 235.168 632.452 261.892 632.452 292.492C632.452 296.98 632.248 301.876 631.84 307.18C631.432 312.484 630.82 318.4 630.004 324.928H434.776C436.816 334.312 440.284 342.472 445.18 349.408C450.484 355.936 456.808 361.036 464.152 364.708C471.904 367.972 480.472 369.604 489.856 369.604C500.464 369.604 509.848 367.36 518.008 362.872C526.168 358.384 532.696 351.856 537.592 343.288L628.168 365.932C615.928 394.9 597.364 417.136 572.476 432.64C547.996 447.736 518.62 455.284 484.348 455.284ZM522.904 266.176C522.496 257.608 520.252 250.06 516.172 243.532C512.5 237.004 507.604 231.904 501.484 228.232C495.364 224.56 488.428 222.928 480.676 223.336C472.924 223.744 465.784 225.784 459.256 229.456C453.136 233.128 447.832 238.228 443.344 244.756C439.264 250.876 436.816 258.016 436 266.176H522.904Z" fill="white"/>
<path d="M108.728 145L165.032 328.6L221.336 145H329.66L221.336 451H108.728L0.404297 145H108.728Z" fill="white"/>
<path d="M1853.75 341.441L1801.88 262.225C1790.42 244.726 1766.94 239.829 1749.44 251.288L1670.23 303.159C1652.73 314.618 1647.83 338.094 1659.29 355.593L1711.16 434.809C1722.62 452.309 1746.09 457.205 1763.59 445.746L1842.81 393.875C1860.31 382.416 1865.21 358.94 1853.75 341.441Z" fill="#00D492"/>
</g>
<defs>
<clipPath id="clip0_3273_76">
<rect width="1874" height="466" fill="white"/>
</clipPath>
</defs>
</svg>
